<?xml version="1.0" standalone="no"?>
<!DOCTYPE svg PUBLIC "-//W3C//DTD SVG 20010904//EN"
 "http://www.w3.org/TR/2001/REC-SVG-20010904/DTD/svg10.dtd">
<svg version="1.0" xmlns="http://www.w3.org/2000/svg"
 width="300.000000pt" height="200.000000pt" viewBox="0 0 300.000000 200.000000"
 preserveAspectRatio="xMidYMid meet">
<metadata>
Created by potrace 1.10, written by Peter Selinger 2001-2011
</metadata>
<g transform="translate(0.000000,200.000000) scale(0.100000,-0.100000)"
fill="#000000" stroke="none">
<path d="M1120 1731 c-73 -24 -150 -78 -180 -127 -26 -41 -24 -107 2 -112 12
-2 15 2 11 17 -9 34 4 64 47 109 71 74 189 119 241 92 33 -18 39 -29 28 -57
-12 -33 -11 -43 5 -43 34 0 35 69 1 100 -27 25 -108 37 -155 21z"/>
<path d="M1828 1683 c-9 -10 -21 -30 -27 -45 -11 -30 -5 -30 -185 17 -204 53
-306 40 -306 -39 0 -23 17 -20 23 4 8 31 53 35 162 16 55 -10 143 -25 195 -34
52 -8 96 -16 97 -17 1 0 0 -10 -3 -22 -5 -18 -11 -21 -39 -16 -27 4 -36 1 -49
-20 -9 -13 -19 -48 -23 -76 -3 -28 -12 -56 -19 -62 -18 -15 -18 1 -2 88 10 56
10 66 -5 80 -18 18 -18 19 -61 -100 -21 -57 -30 -56 -17 2 7 34 6 45 -9 64
-10 12 -21 19 -25 16 -3 -4 -11 -37 -18 -74 -12 -66 -33 -95 -58 -79 -15 9 -1
56 22 72 28 19 23 76 -7 80 -29 4 -56 -31 -61 -82 -4 -28 -13 -52 -26 -63 -20
-18 -20 -17 -13 7 18 67 18 106 1 120 -22 18 -31 3 -40 -65 -4 -27 -12 -56
-17 -62 -21 -26 -26 -11 -12 40 20 76 18 87 -16 100 -16 6 -30 17 -30 24 0 21
-18 24 -35 6 -16 -16 -16 -17 1 -30 16 -12 17 -18 7 -56 -7 -23 -15 -50 -18
-59 -4 -10 -3 -18 4 -18 5 0 15 19 21 43 23 90 29 93 23 10 -5 -73 -4 -83 12
-89 10 -4 27 -2 38 5 16 10 21 10 28 0 7 -11 14 -11 41 -1 21 8 36 8 42 2 15
-15 62 -12 77 6 11 14 13 14 21 0 16 -29 39 -16 64 37 21 45 24 47 19 19 -9
-57 25 -93 55 -57 8 9 22 12 41 8 20 -4 35 0 48 12 18 16 20 16 31 -4 13 -25
55 -28 68 -5 8 14 10 14 21 0 27 -33 91 -9 91 33 0 10 -7 35 -15 54 -18 42
-19 57 -5 57 6 0 10 -7 10 -15 0 -8 5 -15 10 -15 12 0 13 20 2 36 -19 28 -82
19 -82 -13 0 -9 7 -36 16 -60 9 -23 13 -50 10 -60 -7 -16 -9 -15 -26 7 l-18
24 -20 -24 c-11 -14 -22 -23 -25 -20 -2 3 4 47 14 99 15 78 23 99 45 116 20
16 25 27 22 55 -2 29 -7 36 -29 38 -15 2 -32 -4 -41 -15z m62 -21 c0 -12 -28
-48 -33 -42 -8 8 11 50 23 50 5 0 10 -4 10 -8z m-122 -168 c4 -39 -14 -87 -31
-81 -22 8 -7 122 16 114 7 -2 13 -17 15 -33z"/>
<path d="M1102 1630 c-5 -14 -13 -44 -17 -67 -6 -41 -9 -43 -41 -43 -19 0 -34
-4 -34 -10 0 -5 14 -10 30 -10 l30 0 -6 -85 c-5 -62 -3 -89 6 -100 20 -24 27
-18 33 33 13 106 27 151 49 154 12 2 23 9 26 17 3 10 -2 11 -18 6 -22 -7 -22
-5 -16 37 5 36 3 49 -13 69 l-19 24 -10 -25z"/>
<path d="M1366 1571 c-9 -14 4 -41 21 -41 9 0 13 8 11 22 -3 23 -23 35 -32 19z"/>
<path d="M1295 1329 c-38 -5 -115 -20 -170 -34 -117 -29 -128 -30 -145 -10
-10 12 -20 11 -77 -10 -74 -28 -163 -75 -163 -86 0 -4 12 -10 28 -14 75 -18
132 -84 132 -155 0 -35 22 -40 72 -14 26 14 38 14 64 5 23 -8 39 -9 60 0 162
61 461 80 634 39 43 -10 47 -14 68 -68 21 -56 21 -104 -2 -141 -4 -6 -1 -11 8
-11 8 0 21 -3 29 -6 10 -4 17 7 26 38 13 51 15 53 64 96 22 19 32 32 22 32 -8
0 -15 5 -15 10 0 21 32 22 78 2 25 -11 50 -18 54 -16 4 3 10 28 14 56 8 59 31
89 93 121 24 12 44 27 45 32 0 14 -65 49 -147 81 -66 25 -69 26 -82 8 -13 -18
-16 -18 -82 -1 -189 48 -448 68 -608 46z m335 -19 c107 -11 333 -64 367 -86
l23 -14 -40 -79 c-57 -115 -73 -122 -185 -78 -142 56 -406 59 -601 5 -43 -11
-95 -22 -114 -22 -32 -1 -36 3 -76 74 -65 115 -67 112 91 153 190 49 366 64
535 47z m-698 -67 c-12 -21 -2 -56 37 -122 35 -59 34 -76 -5 -91 -34 -13 -40
-8 -48 38 -8 50 -37 88 -81 102 -19 6 -35 17 -35 24 0 6 26 23 58 38 69 32 87
34 74 11z m1189 -19 c42 -21 48 -28 39 -40 -7 -7 -19 -14 -27 -14 -28 0 -73
-56 -73 -92 0 -50 -13 -64 -46 -53 -49 18 -49 34 -5 111 23 39 41 81 41 93 0
27 10 27 71 -5z m-211 -234 c0 -4 -11 -17 -25 -30 l-24 -23 -11 27 c-18 49
-14 55 25 43 19 -6 35 -13 35 -17z"/>
<path d="M1145 1234 c-8 -9 -15 -21 -15 -28 0 -9 -9 -12 -26 -8 -22 4 -25 2
-22 -19 2 -15 17 -32 43 -46 22 -12 43 -23 46 -23 9 0 27 90 22 110 -7 26 -29
32 -48 14z"/>
<path d="M1266 1204 c-19 -55 -20 -64 -6 -64 6 0 10 7 10 15 0 8 7 15 15 15 8
0 15 -7 15 -15 0 -8 9 -15 20 -15 14 0 20 7 20 23 l0 22 18 -21 c18 -22 102
-34 102 -14 0 5 -11 10 -25 10 -32 0 -34 27 -2 33 l22 4 -22 2 c-34 2 -29 31
4 31 19 0 24 3 16 11 -6 6 -21 9 -34 7 -20 -2 -24 -9 -27 -46 -2 -24 -7 -40
-13 -36 -5 3 -7 21 -3 39 5 28 3 34 -15 40 -31 10 -41 -2 -42 -48 l-1 -42 -11
42 c-17 59 -23 60 -41 7z"/>
<path d="M1485 1240 c-3 -5 1 -10 9 -10 12 0 16 -11 16 -45 0 -25 5 -45 10
-45 6 0 10 20 10 45 0 33 4 45 15 45 11 0 15 -12 15 -45 0 -25 5 -45 10 -45 6
0 10 11 10 25 0 16 6 25 15 25 9 0 15 -9 15 -25 0 -14 5 -25 10 -25 6 0 10 25
10 56 0 34 -4 53 -10 49 -5 -3 -10 -15 -10 -26 0 -10 -7 -19 -15 -19 -9 0 -15
9 -15 23 0 20 -5 24 -44 26 -24 1 -47 -3 -51 -9z"/>
<path d="M1640 1195 c0 -54 0 -55 30 -55 17 0 30 5 30 10 0 6 -9 10 -20 10
-25 0 -27 27 -2 33 16 4 16 5 0 6 -25 1 -23 31 2 31 11 0 20 5 20 10 0 6 -13
10 -30 10 -30 0 -30 -1 -30 -55z"/>
<path d="M1780 1229 c-9 -15 -9 -33 0 -70 7 -27 14 -49 16 -49 2 0 23 11 46
24 52 29 68 72 24 64 -16 -3 -26 -1 -26 7 0 12 -31 45 -43 45 -3 0 -11 -9 -17
-21z"/>
<path d="M1374 1052 c-31 -3 -31 -3 -23 -45 4 -23 8 -66 9 -94 0 -47 2 -53 21
-53 15 0 19 5 15 18 -9 32 -18 112 -12 112 3 0 15 -18 26 -40 11 -22 24 -40
28 -40 4 0 17 22 29 48 l22 47 -2 -68 c-2 -67 -2 -67 26 -67 l27 0 0 79 c0 44
2 86 5 93 4 10 -4 14 -29 14 -27 0 -36 -5 -40 -20 -3 -12 -11 -29 -18 -39 -13
-17 -15 -15 -33 20 -17 33 -24 38 -51 35z"/>
<path d="M1575 1035 c3 -11 1 -53 -3 -92 -6 -56 -5 -73 4 -73 7 0 19 -2 26 -5
11 -5 16 15 24 89 l9 94 -32 4 c-28 3 -32 1 -28 -17z"/>
<path d="M1657 973 c-3 -44 -9 -86 -12 -95 -5 -12 4 -16 39 -21 26 -4 57 -9
71 -13 19 -5 25 -2 25 9 0 11 -12 17 -37 19 l-38 3 3 59 c2 32 7 69 12 82 8
20 6 24 -9 24 -11 0 -26 2 -34 5 -11 5 -15 -10 -20 -72z"/>
<path d="M1227 1033 c-15 -2 -25 -7 -23 -11 2 -4 1 -47 -3 -97 -4 -49 -7 -91
-6 -93 1 -1 9 0 18 4 12 4 15 13 11 31 -9 33 25 61 44 36 6 -9 12 -25 12 -36
0 -13 5 -17 16 -13 9 3 23 6 33 6 14 0 11 12 -21 78 -20 42 -37 83 -38 90 0 6
-3 11 -7 11 -5 -1 -20 -4 -36 -6z"/>
<path d="M1121 1005 c-18 -8 -44 -15 -57 -15 -13 0 -24 -1 -24 -3 0 -2 11 -37
25 -77 14 -40 25 -82 25 -92 0 -15 3 -16 28 -6 15 7 28 13 30 13 1 1 -5 19
-13 39 -18 43 -13 56 20 56 17 0 23 4 19 14 -5 12 -11 13 -30 4 -27 -13 -29
-12 -38 19 -6 20 -3 23 33 29 25 4 41 12 41 20 0 18 -16 17 -59 -1z"/>
<path d="M1381 813 l-20 -38 -13 33 c-10 25 -18 32 -40 32 l-27 0 24 -36 c18
-26 25 -50 25 -83 0 -42 2 -46 25 -46 23 0 24 3 19 37 -5 29 0 47 20 84 29 52
30 54 16 54 -5 0 -18 -17 -29 -37z"/>
<path d="M1452 844 c-19 -9 -42 -59 -42 -94 0 -36 38 -80 70 -80 11 0 32 11
45 25 30 30 34 92 8 123 -19 22 -59 35 -81 26z m48 -33 c15 -29 12 -84 -5
-107 -15 -19 -15 -19 -30 0 -25 33 -14 126 15 126 5 0 14 -9 20 -19z"/>
<path d="M1570 775 c0 -52 4 -69 20 -85 27 -27 56 -25 85 5 21 20 25 34 25 85
0 57 -1 60 -25 60 -24 0 -25 -2 -25 -69 0 -72 -9 -92 -30 -66 -8 10 -11 36 -8
75 4 57 3 60 -19 60 -22 0 -23 -4 -23 -65z"/>
<path d="M1087 769 c-35 -20 -7 -75 32 -61 8 3 12 -1 9 -9 -10 -30 -43 -19
-76 26 -34 46 -60 56 -82 31 -18 -23 -9 -61 15 -61 11 0 21 8 23 18 2 9 -1 17
-7 17 -6 0 -11 -5 -11 -11 0 -5 -5 -7 -10 -4 -8 5 -7 11 1 21 18 22 26 18 59
-30 16 -25 39 -48 51 -51 30 -10 51 13 47 50 l-4 32 29 -16 c20 -12 26 -21 22
-36 -3 -11 -11 -65 -17 -120 -7 -61 -17 -107 -26 -118 -25 -29 -35 -5 -27 67
6 63 17 81 29 54 3 -7 4 -2 3 12 -3 35 -36 38 -66 6 -32 -34 -41 -115 -17
-151 19 -28 52 -33 82 -11 17 13 21 12 37 -2 18 -16 20 -16 32 2 8 10 17 37
20 59 11 62 28 83 20 25 -7 -54 6 -88 34 -88 10 0 24 7 31 15 9 11 16 13 24 5
14 -14 59 -13 80 3 10 7 24 35 31 62 15 61 35 73 28 16 -7 -48 16 -91 48 -91
30 0 68 44 75 88 3 22 14 44 25 50 17 11 21 9 30 -15 6 -16 13 -43 16 -60 7
-40 -12 -45 -29 -8 -12 26 -23 31 -32 16 -11 -17 35 -61 63 -61 55 0 65 43 31
132 -20 53 -18 76 4 45 16 -21 26 -22 26 -3 0 18 -27 46 -44 46 -20 0 -47 -24
-50 -45 -1 -10 -10 -24 -19 -29 -13 -8 -20 -6 -32 12 -22 30 -65 29 -93 -3
-24 -28 -52 -33 -52 -10 0 22 -46 38 -72 24 -23 -13 -48 -67 -48 -107 0 -30
-24 -71 -35 -61 -3 4 -1 36 6 73 13 77 8 99 -23 94 -18 -2 -26 -16 -41 -66
-11 -35 -20 -62 -22 -60 -11 12 22 128 46 160 15 22 31 52 34 68 15 67 -49 97
-84 40 -18 -30 -18 -30 -42 -12 -42 33 -63 41 -82 31z m193 -39 c0 -21 -29
-85 -35 -78 -2 1 2 24 8 51 11 48 27 64 27 27z m310 -186 c0 -23 -28 -84 -38
-84 -19 0 -22 46 -7 97 5 16 45 4 45 -13z m-150 -10 c0 -23 -28 -84 -38 -84
-19 0 -22 46 -7 97 5 16 45 4 45 -13z"/>
<path d="M1802 745 c-33 -27 -57 -32 -66 -12 -3 6 -5 3 -3 -8 3 -28 34 -31 68
-6 l29 21 -9 -24 c-12 -29 11 -66 39 -66 10 0 35 20 56 45 20 25 42 45 50 45
19 0 28 -20 15 -33 -8 -8 -11 -6 -11 6 0 9 -5 17 -11 17 -6 0 -9 -8 -7 -17 2
-10 12 -18 23 -18 31 0 34 52 3 64 -32 12 -41 6 -78 -45 -32 -45 -62 -55 -68
-23 -2 11 4 15 19 15 29 -1 47 27 30 48 -19 23 -45 20 -79 -9z"/>
<path d="M1786 624 c-20 -19 -30 -57 -31 -112 0 -46 20 -72 57 -72 22 0 86 56
75 66 -4 4 -20 -5 -35 -19 -16 -15 -31 -27 -35 -27 -4 0 -7 18 -7 40 0 22 4
40 10 40 5 0 17 11 26 25 33 50 -19 100 -60 59z"/>
<path d="M1570 428 c-13 -8 -29 -27 -34 -43 -6 -17 -11 -31 -11 -32 -1 -1 -29
9 -63 23 -36 14 -87 26 -117 27 -45 2 -58 -2 -80 -23 -20 -19 -25 -31 -21 -52
5 -25 2 -28 -36 -38 -69 -19 -126 12 -82 45 11 7 15 17 11 21 -4 4 -17 -2 -29
-13 -57 -58 49 -121 136 -82 20 10 32 8 62 -6 83 -39 190 -13 182 45 -4 26 -3
27 19 17 13 -5 23 -14 23 -18 0 -4 12 -21 26 -38 27 -33 52 -38 86 -20 12 6
63 12 114 13 76 1 96 4 113 20 29 26 24 66 -10 85 -35 19 -95 3 -143 -40 l-34
-29 -71 26 c-43 16 -71 32 -71 41 0 22 47 63 72 63 29 0 68 -26 68 -46 0 -18
-10 -17 -34 1 -27 20 -36 19 -36 -5 0 -37 83 -41 88 -5 7 46 -79 88 -128 63z
m-159 -75 c31 -6 29 -8 -36 -19 -38 -7 -80 -16 -92 -20 -26 -7 -32 13 -11 34
13 13 86 16 139 5z m457 -30 c4 -29 -29 -43 -104 -43 -66 0 -68 13 -8 48 51
29 108 27 112 -5z m-398 -27 c0 -35 -69 -55 -125 -36 -20 7 -33 15 -30 18 27
28 155 43 155 18z m180 -38 c0 -15 -63 -8 -82 9 -30 27 -21 32 32 15 28 -9 50
-19 50 -24z"/>
</g>
</svg>
